<svg version="1.1" id="solnube" xmlns="http://www.w3.org/2000/svg" xmlns:xlink="http://www.w3.org/1999/xlink" x="0px" y="0px"
	 width="25px" height="25px" viewBox="0 0 25 25" enable-background="new 0 0 25 25" xml:space="preserve">
<g>
	<path d="M21.951,18.31c0.11,0.092,0.303,0.056,0.437-0.084c0.146-0.14,0.182-0.328,0.098-0.437c0,0-1.287-1.749-1.312-1.773
		c-0.194-0.194-0.57-0.133-0.85,0.146c-0.266,0.274-0.328,0.65-0.133,0.85C20.216,17.036,21.951,18.31,21.951,18.31z"/>
	<path d="M24.67,12.52c0.134-0.018,0.243-0.177,0.243-0.376c0-0.194-0.11-0.351-0.243-0.363c0,0-2.136-0.335-2.184-0.335
		c-0.267,0-0.499,0.315-0.499,0.698c0,0.389,0.232,0.705,0.499,0.705C22.533,12.848,24.67,12.52,24.67,12.52z"/>
	<path d="M22.486,6.505c0.084-0.102,0.048-0.297-0.098-0.436c-0.134-0.14-0.315-0.176-0.437-0.086c0,0-1.736,1.282-1.76,1.305
		c-0.195,0.194-0.133,0.571,0.133,0.85c0.279,0.268,0.656,0.335,0.85,0.14C21.198,8.248,22.486,6.505,22.486,6.505z"/>
	<path d="M10.649,5.983c-0.109-0.09-0.303-0.054-0.436,0.086c-0.146,0.139-0.182,0.334-0.084,0.436c0,0,1.275,1.743,1.299,1.772
		c0.193,0.195,0.57,0.128,0.849-0.14c0.278-0.278,0.339-0.656,0.134-0.85C12.386,7.264,10.649,5.983,10.649,5.983z"/>
	<path d="M16.658,3.793c-0.012-0.14-0.17-0.249-0.362-0.249c-0.195,0-0.366,0.109-0.377,0.249c0,0-0.328,2.136-0.328,2.173
		c0,0.273,0.315,0.498,0.705,0.498c0.386,0,0.703-0.225,0.703-0.498C16.999,5.928,16.658,3.793,16.658,3.793z"/>
	<path d="M20.616,12.143c0-2.379-1.918-4.32-4.32-4.32c-1.604,0-2.964,0.849-3.716,2.105c-0.946-0.606-2.05-0.941-3.216-0.941
		c-2.816,0-5.208,1.949-5.791,4.637c-1.967,0.145-3.519,1.699-3.519,3.599c0,2.021,1.71,3.642,3.811,3.642l0,0H14.85
		c0.049,0,1.202,0.013,2.368-0.57c1.117-0.557,2.452-1.748,2.452-4.236c0-0.37-0.048-0.723-0.122-1.061
		C20.204,14.231,20.616,13.236,20.616,12.143z M16.598,18.953c-0.85,0.444-1.748,0.455-1.748,0.455L3.865,19.421
		c-1.287,0-2.331-0.978-2.331-2.179c0-1.184,1.045-2.15,2.331-2.15c0.084,0,0.17,0.006,0.254,0.019c0,0,0.426,0.024,0.632-0.164
		c0.146-0.14,0.181-0.496,0.181-0.496c0.232-2.271,2.136-3.982,4.432-3.982c1.42,0,2.732,0.631,3.568,1.76
		c0.025,0.03,0.036,0.055,0.06,0.079c0.038,0.054,0.074,0.111,0.111,0.164c0.012,0.031,0.035,0.061,0.06,0.097
		c0.182,0.286,0.534,0.413,0.862,0.304c0.291-0.103,0.581-0.14,0.837-0.146c1.833,0.006,3.326,1.493,3.326,3.332
		C18.188,17.448,17.665,18.401,16.598,18.953z M14.862,11.245c-0.266,0-0.534,0.025-0.789,0.061
		c-0.121-0.146-0.243-0.292-0.365-0.424c0.461-0.953,1.433-1.609,2.587-1.609c1.601,0,2.864,1.286,2.864,2.87
		c0,0.462-0.098,0.887-0.292,1.275C18.006,12.107,16.538,11.245,14.862,11.245z"/>
</g>
</svg>
